<?xml version="1.0" encoding="UTF-8" standalone="no"?><!-- Generator: Gravit.io --><svg xmlns="http://www.w3.org/2000/svg" xmlns:xlink="http://www.w3.org/1999/xlink" style="isolation:isolate" viewBox="0 0 64 64" width="64pt" height="64pt"><defs><clipPath id="_clipPath_Wa3PU5iBNpYLhzAqAI5fikCQpQ7ZgVh2"><rect width="64" height="64"/></clipPath></defs><g clip-path="url(#_clipPath_Wa3PU5iBNpYLhzAqAI5fikCQpQ7ZgVh2)"><g><path d=" M 54.447 57.821 L 48.691 57.821 L 30.967 9.814 L 35.643 9.814 L 54.447 57.821 Z " fill="rgb(255,255,255)"/><path d=" M 12.159 57.819 L 17.915 57.819 L 35.639 9.812 L 30.963 9.812 L 12.159 57.819 Z " fill="rgb(255,255,255)"/><path d=" M 43.801 55.433 L 43.801 55.433 L 43.801 55.433 Q 45.766 57.546 40.797 58.332 L 40.797 58.332 L 40.797 58.332 Q 35.829 59.119 24.546 58.498 L 24.546 58.498 L 12.163 57.816 L 4.226 49.285 L 17.924 50.039 L 17.924 50.039 Q 28.351 50.613 35.156 52.034 L 35.156 52.034 L 35.156 52.034 Q 41.96 53.455 43.801 55.433 Z  M 38.33 55.165 L 38.33 55.165 L 38.33 55.165 Q 36.777 53.497 31.602 52.409 L 31.602 52.409 L 31.602 52.409 Q 26.427 51.321 17.775 50.845 L 17.775 50.845 L 10.222 50.429 L 16.563 57.244 L 22.892 57.593 L 22.892 57.593 Q 32.187 58.105 36.054 57.49 L 36.054 57.49 L 36.054 57.49 Q 39.92 56.875 38.33 55.165 Z " fill="rgb(255,255,255)"/><circle vector-effect="non-scaling-stroke" cx="33.403759688921006" cy="7.7434751137889" r="1.9434751137889066" fill="rgb(255,255,255)"/><rect x="22.663" y="31.136" width="21.235" height="3.576" transform="matrix(1,0,0,1,0,0)" fill="rgb(255,255,255)"/><rect x="11.87" y="53.058" width="26.742" height="2.021" transform="matrix(1,0,0,1,0,0)" fill="rgb(255,255,255)"/><path d=" M 44.898 31.694 C 45.318 31.169 46.024 30.967 46.658 31.189 C 47.292 31.412 47.716 32.011 47.716 32.683 C 47.716 33.355 47.292 33.954 46.658 34.176 C 46.024 34.399 45.318 34.196 44.898 33.672 C 45.394 34.001 46.056 33.912 46.448 33.464 C 46.839 33.017 46.839 32.349 46.448 31.901 C 46.056 31.454 45.394 31.365 44.898 31.694 L 44.898 31.694 Z " fill="rgb(255,255,255)"/><path d=" M 21.516 33.672 C 21.096 34.196 20.391 34.399 19.757 34.176 C 19.122 33.954 18.698 33.355 18.698 32.683 C 18.698 32.011 19.122 31.412 19.757 31.189 C 20.391 30.967 21.096 31.169 21.516 31.694 C 21.021 31.365 20.358 31.454 19.967 31.901 C 19.575 32.349 19.575 33.017 19.967 33.464 C 20.358 33.912 21.021 34.001 21.516 33.672 L 21.516 33.672 Z " fill="rgb(255,255,255)"/></g></g></svg>