<svg id="Layer_5" enable-background="new 0 0 64 64" height="512" viewBox="0 0 64 64" width="512" xmlns="http://www.w3.org/2000/svg"><g><path d="m13 45c0-2.206-1.794-4-4-4s-4 1.794-4 4v6h8z"/><path d="m13 53v2.001l8-.001v-.716c0-5.075-1.977-9.846-5.564-13.435l-.311-.311c-.366.388-.793.712-1.267.953.715.989 1.142 2.199 1.142 3.509v8z"/><path d="m5.856 31.989 2.144 1.838v-1.999c0-.263-.106-.521-.293-.707l-.828-.828c-.567-.566-.879-1.32-.879-2.121v-.172c0-1.304.836-2.416 2-2.829v-2.171c0-1.442.784-2.739 1.975-3.443-.052-.111-.115-.214-.161-.328l-.743-1.855 1.857-.744.743 1.856c.61 1.528 2.068 2.516 3.714 2.516h1.613c2.207-.001 4.002-1.796 4.002-4.002s-1.794-4-4-4h-5c-3.859 0-7 3.141-7 7v.303l-.627.94c-.898 1.348-1.373 2.916-1.373 4.536 0 2.39 1.041 4.654 2.856 6.21z"/><path d="m12.21 39.939c.748-.131 1.401-.576 1.79-1.231v-3.78l1.631.073c.6-.001 1.206-.252 1.662-.708s.707-1.062.707-1.707v-3.306l2.979-.993c-.137-2.284-.905-4.307-1.639-5.762-.72.306-1.511.476-2.341.476h-1.613c-1.648 0-3.16-.671-4.263-1.791-.67.33-1.123 1.016-1.123 1.79v4h-1c-.552 0-1 .448-1 1v.172c0 .263.106.521.293.707l.828.828c.566.566.879 1.32.879 2.121v7.262c.802.136 1.549.429 2.21.849z"/><path d="m21 61.001h2v-4.001h-2z"/><path d="m10.707 58.707-1.414-1.414 1.707-1.706v-2.587h-4l-.001 3.939c0 1.061.413 2.059 1.163 2.809.821.821 1.857 1.253 2.954 1.253h7.884v-4.001h-6.586z"/><path d="m32 57h-3.618l-.741-1.481c-.271-.542-1.073-.672-1.501-.244l-1.14 1.139v4.587h5.007c1.65 0 2.993-1.347 2.993-3.001 0-.552-.448-1-1-1z"/><path d="m61.553 25.658-6.764-3.382c-.361-.18-.767-.276-1.171-.276-1.443 0-2.618 1.175-2.618 2.618v2.382h-26v2h26v2.382c0 1.443 1.175 2.618 2.618 2.618.404 0 .81-.096 1.171-.276l6.765-3.382c.891-.447 1.446-1.345 1.446-2.342s-.555-1.895-1.447-2.342z"/><path d="m46.382 43h-2.382v-7c0-2.757-2.243-5-5-5h-14v2h14c1.654 0 3 1.346 3 3v7h-2.382c-1.443 0-2.618 1.175-2.618 2.618 0 .404.096.81.276 1.171l3.382 6.765c.447.891 1.345 1.446 2.342 1.446s1.895-.555 2.342-1.447l3.382-6.764c.18-.361.276-.767.276-1.171 0-1.443-1.175-2.618-2.618-2.618z"/><path d="m44 20v-7h2.382c1.443 0 2.618-1.175 2.618-2.618 0-.404-.096-.81-.276-1.171l-3.382-6.765c-.447-.891-1.345-1.446-2.342-1.446s-1.895.555-2.342 1.447l-3.382 6.764c-.18.361-.276.767-.276 1.171 0 1.443 1.175 2.618 2.618 2.618h2.382v7c0 1.654-1.346 3-3 3h-14v2h14c2.757 0 5-2.243 5-5z"/></g></svg>